<?xml version="1.0" standalone="no"?>
<!DOCTYPE svg PUBLIC "-//W3C//DTD SVG 20010904//EN"
 "http://www.w3.org/TR/2001/REC-SVG-20010904/DTD/svg10.dtd">
<svg version="1.0" xmlns="http://www.w3.org/2000/svg"
 width="512.000000pt" height="512.000000pt" viewBox="0 0 512.000000 512.000000"
 preserveAspectRatio="xMidYMid meet">

<g transform="translate(0.000000,512.000000) scale(0.100000,-0.100000)"
fill="#000000" stroke="none">
<path d="M1225 4028 c-200 -11 -189 2 -195 -228 l-5 -182 -115 -35 c-157 -47
-198 -66 -210 -98 -14 -36 -14 -2294 0 -2329 19 -50 46 -52 170 -11 384 124
743 177 1200 178 1063 3 1244 1 1405 -17 295 -33 532 -82 761 -157 139 -45
165 -44 184 7 14 35 14 2293 0 2329 -12 32 -53 51 -210 98 l-115 35 -5 182
c-5 181 -5 183 -30 201 -50 37 -431 42 -658 9 -206 -30 -507 -121 -707 -212
-60 -28 -121 -51 -135 -51 -14 0 -75 23 -135 51 -380 174 -795 254 -1200 230z
m405 -149 c224 -25 508 -105 744 -210 l116 -52 0 -1062 0 -1063 -112 45 c-193
76 -425 135 -648 165 -54 7 -194 13 -327 13 l-233 0 0 1087 0 1087 88 4 c114
4 254 -1 372 -14z m2253 11 l67 0 0 -1088 0 -1088 -232 0 c-373 1 -655 -51
-975 -177 l-113 -45 0 1063 0 1063 118 51 c207 92 434 162 636 196 118 20 312
35 381 29 28 -2 80 -4 118 -4z m-2853 -1358 c0 -923 0 -939 20 -957 18 -17 30
-17 182 -5 267 21 511 2 773 -63 l130 -32 -165 -7 c-389 -17 -713 -64 -1005
-148 -55 -16 -108 -32 -118 -35 -16 -7 -17 46 -15 1060 l3 1067 85 28 c47 15
91 28 98 29 9 1 12 -193 12 -937z m3185 903 l70 -21 3 -1068 c2 -944 0 -1068
-13 -1062 -237 91 -695 166 -1130 184 l-160 7 130 32 c262 65 506 84 773 63
152 -12 164 -12 182 5 20 18 20 34 20 957 l0 938 28 -6 c15 -4 59 -17 97 -29z"/>
</g>
</svg>
